{
.appVersion = "3343";
.formatVersion = 3;
date = "2025-06-30 01:30:16 +0000";
familyName = "SUPERB ELLIPSE BOLD";
fontMaster = (
{
iconName = Bold;
id = m002;
metricValues = (
{
over = 16;
pos = 760;
},
{
over = 16;
pos = 700;
},
{
over = 16;
pos = 500;
},
{
over = -16;
},
{
over = -16;
pos = -212;
},
{
}
);
name = Bold;
userData = {
GSCornerRadius = 5;
};
}
);
glyphs = (
{
glyphname = A;
lastChange = "2025-06-30 01:30:45 +0000";
layers = (
{
layerId = m002;
shapes = (
{
closed = 1;
nodes = (
(645,0,ls),
(648,0,o),
(650,2,o),
(649,6,cs),
(414,696,ls),
(413,698,o),
(412,700,o),
(409,700,cs),
(277,700,ls),
(274,700,o),
(272,698,o),
(273,694,cs),
(508,4,ls),
(509,2,o),
(510,0,o),
(513,0,cs)
);
},
{
closed = 1;
nodes = (
(448,290,ls),
(448,293,o),
(446,295,o),
(443,295,cs),
(159,295,ls),
(156,295,o),
(154,293,o),
(154,290,cs),
(154,269,ls),
(154,266,o),
(156,264,o),
(159,264,cs),
(443,264,ls),
(446,264,o),
(448,266,o),
(448,269,cs)
);
},
{
closed = 1;
nodes = (
(27,6,ls),
(26,2,o),
(28,0,o),
(31,0,cs),
(67,0,ls),
(70,0,o),
(71,2,o),
(72,4,cs),
(312,694,ls),
(313,698,o),
(311,700,o),
(308,700,cs),
(277,700,ls),
(274,700,o),
(273,698,o),
(272,696,cs)
);
}
);
width = 676;
}
);
unicode = 65;
},
{
glyphname = B;
lastChange = "2025-06-30 01:30:45 +0000";
layers = (
{
layerId = m002;
shapes = (
{
closed = 1;
nodes = (
(345,0,ls),
(485,0,o),
(595,47,o),
(595,204,cs),
(595,358,o),
(445,406,o),
(335,406,cs),
(154,405,ls),
(151,405,o),
(149,403,o),
(149,400,cs),
(149,381,ls),
(149,378,o),
(151,376,o),
(154,376,cs),
(335,376,ls),
(432,376,o),
(462,303,o),
(462,222,cs),
(462,180,ls),
(462,83,o),
(460,30,o),
(345,30,cs),
(172,30,ls),
(169,30,o),
(164,27,o),
(167,25,cs),
(189,5,ls),
(192,3,o),
(191,0,o),
(194,0,cs)
);
},
{
closed = 1;
nodes = (
(192,0,ls),
(195,0,o),
(197,2,o),
(197,5,cs),
(197,695,ls),
(197,698,o),
(195,700,o),
(192,700,cs),
(70,700,ls),
(67,700,o),
(65,698,o),
(65,695,cs),
(65,5,ls),
(65,2,o),
(67,0,o),
(70,0,cs)
);
},
{
closed = 1;
nodes = (
(305,376,ls),
(395,376,o),
(555,384,o),
(555,542,cs),
(555,662,o),
(473,702,o),
(335,701,cs),
(153,700,ls),
(151,700,o),
(148,699,o),
(147,696,cs),
(137,677,ls),
(135,673,o),
(137,671,o),
(141,671,cs),
(335,671,ls),
(402,671,o),
(422,630,o),
(422,548,cs),
(422,522,ls),
(422,455,o),
(400,406,o),
(305,406,cs),
(172,406,ls),
(169,406,o),
(167,405,o),
(167,401,cs),
(169,381,ls),
(169,377,o),
(171,376,o),
(174,376,cs)
);
}
);
width = 635;
}
);
unicode = 66;
},
{
glyphname = C;
lastChange = "2025-06-30 01:30:45 +0000";
layers = (
{
layerId = m002;
shapes = (
{
closed = 1;
nodes = (
(599,223,ls),
(596,223,o),
(594,221,o),
(594,218,cs),
(592,68,o),
(546,14,o),
(405,14,cs),
(258,14,o),
(158,61,o),
(158,314,cs),
(158,376,ls),
(158,638,o),
(258,685,o),
(405,685,cs),
(532,685,o),
(592,621,o),
(594,471,cs),
(594,468,o),
(596,466,o),
(599,466,cs),
(719,466,ls),
(722,466,o),
(724,468,o),
(724,471,cs),
(721,648,o),
(543,715,o),
(405,715,cs),
(245,715,o),
(25,633,o),
(25,348,cs),
(25,342,ls),
(25,55,o),
(245,-16,o),
(405,-16,cs),
(540,-16,o),
(718,48,o),
(721,218,cs),
(721,221,o),
(719,223,o),
(716,223,cs)
);
}
);
width = 749;
}
);
unicode = 67;
},
{
glyphname = D;
lastChange = "2025-06-30 01:30:45 +0000";
layers = (
{
layerId = m002;
shapes = (
{
closed = 1;
nodes = (
(197,0,l),
(197,700,l),
(70,700,ls),
(67,700,o),
(65,698,o),
(65,695,cs),
(65,5,ls),
(65,2,o),
(67,0,o),
(70,0,cs)
);
},
{
closed = 1;
nodes = (
(295,0,ls),
(444,0,o),
(668,91,o),
(668,344,cs),
(668,370,ls),
(668,621,o),
(444,699,o),
(295,700,c),
(172,700,l),
(172,671,l),
(295,671,ls),
(429,671,o),
(535,596,o),
(535,388,cs),
(535,306,ls),
(535,97,o),
(429,30,o),
(295,30,cs),
(180,30,l),
(180,0,l)
);
}
);
width = 708;
}
);
unicode = 68;
},
{
glyphname = E;
lastChange = "2025-06-30 01:30:45 +0000";
layers = (
{
layerId = m002;
shapes = (
{
closed = 1;
nodes = (
(530,0,ls),
(533,0,o),
(535,2,o),
(535,5,cs),
(535,26,ls),
(535,29,o),
(533,31,o),
(530,31,cs),
(197,31,l),
(197,370,l),
(418,370,ls),
(421,370,o),
(423,372,o),
(423,375,cs),
(423,396,ls),
(423,399,o),
(421,401,o),
(418,401,cs),
(197,401,l),
(197,669,l),
(530,669,ls),
(533,669,o),
(535,671,o),
(535,674,cs),
(535,695,ls),
(535,698,o),
(533,700,o),
(530,700,cs),
(70,700,ls),
(67,700,o),
(65,698,o),
(65,695,cs),
(65,5,ls),
(65,2,o),
(67,0,o),
(70,0,cs)
);
}
);
width = 565;
}
);
unicode = 69;
},
{
glyphname = F;
lastChange = "2025-06-30 01:30:45 +0000";
layers = (
{
background = {
shapes = (
{
closed = 1;
nodes = (
(172,0,ls),
(175,0,o),
(177,2,o),
(177,5,cs),
(177,669,l),
(530,669,ls),
(533,669,o),
(535,671,o),
(535,674,cs),
(535,695,ls),
(535,698,o),
(533,700,o),
(530,700,cs),
(177,700,l),
(177,700,l),
(100,700,ls),
(97,700,o),
(95,698,o),
(95,695,cs),
(95,5,ls),
(95,2,o),
(97,0,o),
(100,0,cs)
);
},
{
closed = 1;
nodes = (
(448,300,ls),
(451,300,o),
(453,302,o),
(453,305,cs),
(453,326,ls),
(453,329,o),
(451,331,o),
(448,331,cs),
(182,331,ls),
(179,331,o),
(177,329,o),
(177,326,cs),
(177,305,ls),
(177,302,o),
(179,300,o),
(182,300,cs)
);
}
);
};
layerId = m002;
shapes = (
{
closed = 1;
nodes = (
(202,0,ls),
(205,0,o),
(207,2,o),
(207,5,cs),
(207,300,l),
(448,300,ls),
(451,300,o),
(453,302,o),
(453,305,cs),
(453,326,ls),
(453,329,o),
(451,331,o),
(448,331,cs),
(207,331,l),
(207,669,l),
(530,669,ls),
(533,669,o),
(535,671,o),
(535,674,cs),
(535,695,ls),
(535,698,o),
(533,700,o),
(530,700,cs),
(70,700,ls),
(67,700,o),
(65,698,o),
(65,695,cs),
(65,5,ls),
(65,2,o),
(67,0,o),
(70,0,cs)
);
}
);
width = 565;
}
);
unicode = 70;
},
{
glyphname = G;
lastChange = "2025-06-30 01:30:45 +0000";
layers = (
{
layerId = m002;
shapes = (
{
closed = 1;
nodes = (
(594,291,l),
(593,55,o),
(527,14,o),
(396,14,cs),
(259,14,o),
(198,61,o),
(198,304,cs),
(198,386,ls),
(198,628,o),
(259,685,o),
(396,685,cs),
(523,685,o),
(592,621,o),
(594,471,cs),
(594,468,o),
(596,466,o),
(599,466,cs),
(719,466,ls),
(722,466,o),
(724,468,o),
(724,471,cs),
(721,648,o),
(534,715,o),
(396,715,cs),
(246,715,o),
(65,611,o),
(65,356,cs),
(65,344,ls),
(65,87,o),
(256,-16,o),
(406,-16,cs),
(515,-16,o),
(648,40,o),
(684,175,c),
(684,5,ls),
(684,2,o),
(686,0,o),
(689,0,cs),
(716,0,ls),
(719,0,o),
(721,2,o),
(721,5,c),
(721,317,l),
(721,320,o),
(719,322,o),
(716,322,cs),
(501,322,ls),
(498,322,o),
(496,320,o),
(496,317,cs),
(496,296,ls),
(496,293,o),
(498,291,o),
(501,291,cs)
);
}
);
width = 754;
}
);
unicode = 71;
},
{
glyphname = H;
lastChange = "2025-06-30 01:30:45 +0000";
layers = (
{
layerId = m002;
shapes = (
{
closed = 1;
nodes = (
(192,0,ls),
(195,0,o),
(197,2,o),
(197,5,cs),
(197,370,l),
(573,370,l),
(573,5,ls),
(573,2,o),
(575,0,o),
(578,0,cs),
(700,0,ls),
(703,0,o),
(705,2,o),
(705,5,cs),
(705,695,ls),
(705,698,o),
(703,700,o),
(700,700,cs),
(578,700,ls),
(575,700,o),
(573,698,o),
(573,695,cs),
(573,401,l),
(197,401,l),
(197,695,ls),
(197,698,o),
(195,700,o),
(192,700,cs),
(70,700,ls),
(67,700,o),
(65,698,o),
(65,695,cs),
(65,5,ls),
(65,2,o),
(67,0,o),
(70,0,cs)
);
}
);
width = 770;
}
);
unicode = 72;
},
{
glyphname = I;
lastChange = "2025-06-30 01:30:45 +0000";
layers = (
{
layerId = m002;
shapes = (
{
closed = 1;
nodes = (
(70,700,ls),
(67,700,o),
(65,698,o),
(65,695,cs),
(65,5,ls),
(65,2,o),
(67,0,o),
(70,0,cs),
(192,0,ls),
(195,0,o),
(197,2,o),
(197,5,cs),
(197,695,ls),
(197,698,o),
(195,700,o),
(192,700,cs)
);
}
);
width = 262;
}
);
unicode = 73;
},
{
glyphname = J;
lastChange = "2025-06-30 01:30:45 +0000";
layers = (
{
layerId = m002;
shapes = (
{
closed = 1;
nodes = (
(327,182,l),
(327,57,o),
(336,12,o),
(239,12,cs),
(171,12,o),
(159,57,o),
(158,130,cs),
(158,133,o),
(156,135,o),
(153,135,cs),
(35,135,ls),
(32,135,o),
(30,133,o),
(30,130,cs),
(33,8,o),
(153,-16,o),
(239,-16,cs),
(349,-16,o),
(459,36,o),
(459,201,c),
(459,695,l),
(459,698,o),
(457,700,o),
(454,700,cs),
(332,700,ls),
(329,700,o),
(327,698,o),
(327,695,c)
);
}
);
width = 524;
}
);
unicode = 74;
},
{
glyphname = K;
lastChange = "2025-06-30 01:30:45 +0000";
layers = (
{
layerId = m002;
shapes = (
{
closed = 1;
nodes = (
(145,222,l),
(564,694,ls),
(567,698,o),
(565,700,o),
(561,700,cs),
(530,700,ls),
(528,700,o),
(525,699,o),
(524,697,cs),
(103,222,l)
);
},
{
closed = 1;
nodes = (
(70,700,ls),
(67,700,o),
(65,698,o),
(65,695,cs),
(65,5,ls),
(65,2,o),
(67,0,o),
(70,0,cs),
(192,0,ls),
(195,0,o),
(197,2,o),
(197,5,cs),
(197,695,ls),
(197,698,o),
(195,700,o),
(192,700,cs)
);
},
{
closed = 1;
nodes = (
(243,375,l),
(504,3,ls),
(505,1,o),
(508,0,o),
(510,0,cs),
(630,0,ls),
(634,0,o),
(635,3,o),
(633,6,cs),
(325,456,l)
);
}
);
width = 644;
}
);
unicode = 75;
},
{
glyphname = L;
lastChange = "2025-06-30 01:30:45 +0000";
layers = (
{
layerId = m002;
shapes = (
{
closed = 1;
nodes = (
(530,0,ls),
(533,0,o),
(535,2,o),
(535,5,cs),
(535,26,ls),
(535,29,o),
(533,31,o),
(530,31,cs),
(197,31,l),
(197,695,ls),
(197,698,o),
(195,700,o),
(192,700,cs),
(70,700,ls),
(67,700,o),
(65,698,o),
(65,695,cs),
(65,5,ls),
(65,2,o),
(67,0,o),
(70,0,cs)
);
}
);
width = 545;
}
);
unicode = 76;
},
{
glyphname = M;
lastChange = "2025-06-30 01:30:45 +0000";
layers = (
{
layerId = m002;
shapes = (
{
closed = 1;
nodes = (
(800,0,ls),
(803,0,o),
(805,2,o),
(805,5,cs),
(805,695,ls),
(805,698,o),
(803,700,o),
(800,700,cs),
(766,700,l),
(769,691,l),
(695,576,ls),
(694,574,o),
(663,523,o),
(663,521,cs),
(663,5,ls),
(663,2,o),
(695,0,o),
(698,0,cs)
);
},
{
closed = 1;
nodes = (
(450,0,ls),
(452,0,o),
(455,2,o),
(456,4,cs),
(772,694,l),
(799,700,l),
(739,700,ls),
(737,700,o),
(734,698,o),
(733,696,cs),
(461,99,l),
(123,697,ls),
(122,699,o),
(119,700,o),
(117,700,cs),
(70,700,ls),
(67,700,o),
(65,698,o),
(65,695,cs),
(65,6,ls),
(65,3,o),
(67,1,o),
(70,1,cs),
(96,1,ls),
(99,1,o),
(101,3,o),
(101,6,cs),
(101,446,l),
(357,4,ls),
(358,2,o),
(361,0,o),
(363,0,cs)
);
}
);
width = 870;
}
);
unicode = 77;
},
{
glyphname = N;
lastChange = "2025-06-30 01:30:45 +0000";
layers = (
{
layerId = m002;
shapes = (
{
closed = 1;
nodes = (
(639,0,ls),
(642,0,o),
(644,2,o),
(644,5,cs),
(644,695,ls),
(644,698,o),
(642,700,o),
(639,700,cs),
(613,700,ls),
(610,700,o),
(608,698,o),
(608,695,cs),
(608,127,l),
(153,697,l),
(152,699,o),
(149,700,o),
(147,700,cs),
(70,700,ls),
(67,700,o),
(65,698,o),
(65,695,cs),
(65,6,ls),
(65,3,o),
(67,1,o),
(70,1,cs),
(96,1,ls),
(99,1,o),
(101,3,o),
(101,6,cs),
(101,564,l),
(563,0,l)
);
}
);
width = 709;
}
);
unicode = 78;
},
{
glyphname = O;
lastChange = "2025-06-30 01:30:45 +0000";
layers = (
{
layerId = m002;
shapes = (
{
closed = 1;
nodes = (
(560,-16,o),
(790,75,o),
(790,332,cs),
(790,368,ls),
(790,623,o),
(560,715,o),
(410,715,cs),
(260,715,o),
(30,623,o),
(30,368,cs),
(30,332,ls),
(30,75,o),
(260,-16,o),
(410,-16,cs)
);
},
{
closed = 1;
nodes = (
(273,14,o),
(163,71,o),
(163,304,cs),
(163,386,ls),
(163,618,o),
(273,685,o),
(410,685,cs),
(547,685,o),
(656,618,o),
(656,386,cs),
(656,304,ls),
(656,77,o),
(565,14,o),
(410,14,cs)
);
}
);
width = 820;
}
);
unicode = 79;
},
{
glyphname = P;
lastChange = "2025-06-30 01:30:45 +0000";
layers = (
{
layerId = m002;
shapes = (
{
closed = 1;
nodes = (
(192,0,ls),
(195,0,o),
(197,2,o),
(197,5,cs),
(197,700,l),
(70,700,ls),
(67,700,o),
(65,698,o),
(65,695,cs),
(65,5,ls),
(65,2,o),
(67,0,o),
(70,0,cs)
);
},
{
closed = 1;
nodes = (
(131,700,l),
(131,670,l),
(300,670,l),
(383,668,o),
(422,619,o),
(422,503,cs),
(422,476,ls),
(422,354,o),
(382,284,o),
(295,284,cs),
(131,284,l),
(131,254,l),
(315,254,ls),
(445,254,o),
(565,309,o),
(565,484,cs),
(565,654,o),
(447,698,o),
(320,700,c)
);
}
);
width = 565;
}
);
unicode = 80;
},
{
glyphname = Q;
lastChange = "2025-06-30 01:30:45 +0000";
layers = (
{
layerId = m002;
shapes = (
{
closed = 1;
nodes = (
(560,-16,o),
(790,75,o),
(790,332,cs),
(790,368,ls),
(790,623,o),
(560,715,o),
(410,715,cs),
(260,715,o),
(30,623,o),
(30,368,cs),
(30,332,ls),
(30,75,o),
(260,-16,o),
(410,-16,cs)
);
},
{
closed = 1;
nodes = (
(273,14,o),
(163,71,o),
(163,304,cs),
(163,386,ls),
(163,618,o),
(273,685,o),
(410,685,cs),
(547,685,o),
(656,618,o),
(656,386,cs),
(656,304,ls),
(656,77,o),
(565,14,o),
(410,14,cs)
);
},
{
closed = 1;
nodes = (
(340,-1,l),
(340,-17,ls),
(340,-163,o),
(458,-228,o),
(551,-228,cs),
(624,-228,o),
(715,-190,o),
(718,-104,cs),
(718,-101,o),
(716,-99,o),
(713,-99,cs),
(606,-99,ls),
(603,-99,o),
(601,-101,o),
(601,-104,cs),
(600,-164,o),
(590,-203,o),
(533,-203,cs),
(460,-203,o),
(473,-115,o),
(473,-17,cs),
(473,-1,l)
);
}
);
width = 820;
}
);
unicode = 81;
},
{
glyphname = R;
lastChange = "2025-06-30 01:30:45 +0000";
layers = (
{
layerId = m002;
shapes = (
{
closed = 1;
nodes = (
(70,700,ls),
(67,700,o),
(65,698,o),
(65,695,cs),
(65,5,ls),
(65,2,o),
(67,0,o),
(70,0,cs),
(192,0,ls),
(195,0,o),
(197,2,o),
(197,5,cs),
(197,700,l)
);
},
{
closed = 1;
nodes = (
(131,700,l),
(131,670,l),
(320,670,ls),
(413,670,o),
(432,599,o),
(432,513,cs),
(432,486,ls),
(432,384,o),
(412,304,o),
(315,304,cs),
(131,304,l),
(131,274,l),
(315,274,ls),
(445,274,o),
(565,319,o),
(565,494,cs),
(565,654,o),
(447,700,o),
(320,700,c)
);
},
{
closed = 1;
nodes = (
(439,3,ls),
(440,1,o),
(443,0,o),
(445,0,cs),
(576,0,ls),
(580,0,o),
(581,2,o),
(579,6,cs),
(409,289,l),
(274,283,l)
);
}
);
width = 629;
}
);
unicode = 82;
},
{
glyphname = S;
lastChange = "2025-06-30 01:30:45 +0000";
layers = (
{
layerId = m002;
shapes = (
{
closed = 1;
nodes = (
(508,545,ls),
(511,545,o),
(513,547,o),
(513,550,cs),
(509,692,o),
(326,716,o),
(264,716,cs),
(179,716,o),
(17,658,o),
(17,521,cs),
(17,413,o),
(182,341,o),
(225,316,cs),
(299,273,ls),
(336,251,o),
(428,203,o),
(428,133,cs),
(428,66,o),
(390,17,o),
(296,17,cs),
(178,17,o),
(126,76,o),
(124,182,cs),
(124,185,o),
(122,187,o),
(119,187,cs),
(5,187,ls),
(2,187,o),
(0,185,o),
(0,182,cs),
(4,40,o),
(183,-16,o),
(282,-16,cs),
(399,-16,o),
(544,46,o),
(544,162,cs),
(544,285,o),
(398,358,o),
(335,394,cs),
(265,434,ls),
(226,456,o),
(122,504,o),
(122,559,cs),
(122,627,o),
(155,684,o),
(244,684,cs),
(352,684,o),
(376,624,o),
(377,550,cs),
(377,547,o),
(379,545,o),
(382,545,cs)
);
}
);
width = 538;
}
);
unicode = 83;
},
{
glyphname = T;
lastChange = "2025-06-30 01:30:45 +0000";
layers = (
{
layerId = m002;
shapes = (
{
closed = 1;
nodes = (
(30,674,ls),
(30,671,o),
(32,669,o),
(35,669,cs),
(235,669,l),
(235,5,ls),
(235,2,o),
(237,0,o),
(240,0,cs),
(362,0,ls),
(365,0,o),
(367,2,o),
(367,5,cs),
(367,669,l),
(565,669,ls),
(568,669,o),
(570,671,o),
(570,674,cs),
(570,695,ls),
(570,698,o),
(568,700,o),
(565,700,cs),
(35,700,ls),
(32,700,o),
(30,698,o),
(30,695,cs)
);
}
);
width = 600;
}
);
unicode = 84;
},
{
glyphname = U;
lastChange = "2025-06-30 01:30:45 +0000";
layers = (
{
layerId = m002;
shapes = (
{
closed = 1;
nodes = (
(593,700,ls),
(590,700,o),
(588,698,o),
(588,695,cs),
(588,274,ls),
(588,101,o),
(516,21,o),
(380,21,cs),
(242,21,o),
(163,71,o),
(163,274,cs),
(163,695,ls),
(163,698,o),
(161,700,o),
(158,700,cs),
(35,700,ls),
(32,700,o),
(30,698,o),
(30,695,cs),
(30,292,ls),
(30,35,o),
(237,-16,o),
(346,-16,cs),
(467,-16,o),
(624,25,o),
(624,272,c),
(624,695,ls),
(624,698,o),
(622,700,o),
(619,700,cs)
);
}
);
width = 684;
}
);
unicode = 85;
},
{
glyphname = V;
lastChange = "2025-06-30 01:30:45 +0000";
layers = (
{
layerId = m002;
shapes = (
{
closed = 1;
nodes = (
(416,0,ls),
(418,0,o),
(421,2,o),
(422,4,cs),
(688,694,ls),
(689,698,o),
(687,700,o),
(684,700,cs),
(644,700,ls),
(642,700,o),
(640,698,o),
(639,696,cs),
(388,26,l),
(430,26,l),
(174,696,ls),
(173,698,o),
(170,700,o),
(168,700,cs),
(51,700,ls),
(48,700,o),
(46,698,o),
(47,694,cs),
(311,4,ls),
(312,2,o),
(315,0,o),
(317,0,cs)
);
}
);
width = 735;
}
);
unicode = 86;
},
{
glyphname = W;
lastChange = "2025-06-30 01:30:45 +0000";
layers = (
{
layerId = m002;
shapes = (
{
closed = 1;
nodes = (
(354,0,ls),
(357,0,o),
(358,2,o),
(359,4,cs),
(537,569,l),
(713,4,ls),
(714,2,o),
(715,0,o),
(718,0,cs),
(822,0,ls),
(825,0,o),
(826,2,o),
(827,4,cs),
(1044,694,ls),
(1045,698,o),
(1043,700,o),
(1040,700,cs),
(1008,700,ls),
(1005,700,o),
(1004,698,o),
(1003,696,cs),
(799,49,l),
(831,49,l),
(630,694,ls),
(629,697,o),
(627,697,o),
(626,697,c),
(626,698,o),
(624,700,o),
(622,700,cs),
(540,700,ls),
(537,700,o),
(536,698,o),
(535,696,cs),
(334,56,l),
(360,56,l),
(161,696,ls),
(160,698,o),
(159,700,o),
(156,700,cs),
(34,700,ls),
(31,700,o),
(29,698,o),
(30,694,cs),
(245,4,ls),
(246,2,o),
(247,0,o),
(250,0,cs)
);
}
);
width = 1074;
}
);
unicode = 87;
},
{
glyphname = X;
lastChange = "2025-06-30 01:30:45 +0000";
layers = (
{
layerId = m002;
shapes = (
{
closed = 1;
nodes = (
(702,0,ls),
(706,0,o),
(708,3,o),
(706,6,cs),
(204,697,ls),
(203,699,o),
(200,700,o),
(198,700,cs),
(58,700,ls),
(54,700,o),
(52,697,o),
(54,694,cs),
(556,3,ls),
(557,1,o),
(560,0,o),
(562,0,cs)
);
},
{
closed = 1;
nodes = (
(386,357,ls),
(388,354,o),
(391,355,o),
(393,357,cs),
(660,694,ls),
(662,697,o),
(661,700,o),
(657,700,cs),
(617,700,ls),
(615,700,o),
(612,699,o),
(611,697,cs),
(366,390,ls),
(364,387,o),
(364,386,o),
(366,383,cs)
);
},
{
closed = 1;
nodes = (
(356,382,ls),
(354,385,o),
(351,384,o),
(349,382,cs),
(50,6,ls),
(48,3,o),
(49,0,o),
(53,0,cs),
(97,0,ls),
(99,0,o),
(102,1,o),
(103,3,cs),
(376,349,ls),
(378,352,o),
(378,353,o),
(376,356,cs)
);
}
);
width = 756;
}
);
unicode = 88;
},
{
glyphname = Y;
lastChange = "2025-06-30 01:30:45 +0000";
layers = (
{
layerId = m002;
shapes = (
{
closed = 1;
nodes = (
(368,264,ls),
(372,264,o),
(374,266,o),
(372,270,cs),
(139,696,ls),
(138,698,o),
(135,700,o),
(133,700,cs),
(12,700,ls),
(8,700,o),
(6,698,o),
(8,694,cs),
(247,257,l)
);
},
{
closed = 1;
nodes = (
(370,0,ls),
(373,0,o),
(375,2,o),
(375,5,cs),
(370,275,l),
(243,275,l),
(243,5,ls),
(243,2,o),
(245,0,o),
(248,0,cs)
);
},
{
closed = 1;
nodes = (
(368,252,l),
(587,694,ls),
(589,698,o),
(587,700,o),
(583,700,cs),
(550,700,ls),
(548,700,o),
(545,698,o),
(544,696,cs),
(335,268,l)
);
}
);
width = 620;
}
);
unicode = 89;
},
{
glyphname = Z;
lastChange = "2025-06-30 01:30:45 +0000";
layers = (
{
layerId = m002;
shapes = (
{
closed = 1;
nodes = (
(50,5,ls),
(50,1,o),
(52,0,o),
(55,0,cs),
(615,0,ls),
(618,0,o),
(620,2,o),
(620,5,cs),
(620,31,ls),
(620,34,o),
(618,36,o),
(615,36,cs),
(185,36,l),
(588,661,ls),
(589,663,o),
(590,665,o),
(590,667,cs),
(590,695,ls),
(590,698,o),
(588,700,o),
(585,700,cs),
(56,700,ls),
(53,700,o),
(51,698,o),
(51,695,cs),
(51,669,ls),
(51,666,o),
(53,664,o),
(56,664,cs),
(456,664,l),
(53,39,ls),
(52,37,o),
(51,36,o),
(51,33,cs)
);
}
);
width = 670;
}
);
unicode = 90;
},
{
glyphname = a;
lastChange = "2025-06-30 01:30:45 +0000";
layers = (
{
layerId = m002;
shapes = (
{
closed = 1;
nodes = (
(35,38,o),
(125,-16,o),
(231,-16,cs),
(282,-16,o),
(331,-1,o),
(377,40,c),
(377,5,ls),
(377,2,o),
(379,0,o),
(382,0,cs),
(480,0,ls),
(483,0,o),
(485,2,o),
(485,5,cs),
(485,268,l),
(485,331,l),
(485,471,o),
(377,515,o),
(276,515,cs),
(190,515,o),
(80,471,o),
(77,369,cs),
(77,366,o),
(79,364,o),
(82,364,cs),
(203,364,ls),
(206,364,o),
(208,366,o),
(208,369,cs),
(209,442,o),
(208,487,o),
(276,487,cs),
(363,487,o),
(353,433,o),
(353,330,c),
(353,281,l),
(326,281,ls),
(166,281,o),
(35,247,o),
(35,132,cs)
);
},
{
closed = 1;
nodes = (
(353,69,o),
(327,13,o),
(258,13,cs),
(205,13,o),
(168,54,o),
(168,134,cs),
(168,218,o),
(189,251,o),
(326,251,cs),
(353,251,l),
(353,115,ls)
);
}
);
width = 540;
}
);
unicode = 97;
},
{
glyphname = b;
lastChange = "2025-06-30 01:30:45 +0000";
layers = (
{
background = {
shapes = (
{
closed = 1;
nodes = (
(50,760,ls),
(47,760,o),
(45,758,o),
(45,755,cs),
(45,5,ls),
(45,2,o),
(47,0,o),
(50,0,cs),
(167,0,ls),
(170,0,o),
(172,2,o),
(172,5,cs),
(172,34,l),
(212,0,o),
(246,-16,o),
(295,-16,cs),
(375,-16,o),
(525,36,o),
(525,250,cs),
(525,466,o),
(375,516,o),
(295,516,cs),
(202,516,o),
(177,435,o),
(177,450,cs),
(177,755,ls),
(177,758,o),
(175,760,o),
(172,760,cs)
);
},
{
closed = 1;
nodes = (
(362,488,o),
(412,405,o),
(412,273,cs),
(412,217,ls),
(412,95,o),
(362,12,o),
(295,12,cs),
(206,12,o),
(177,63,o),
(177,125,c),
(177,362,ls),
(177,428,o),
(219,488,o),
(295,488,cs)
);
}
);
};
layerId = m002;
shapes = (
{
closed = 1;
nodes = (
(172,758,o),
(170,760,o),
(167,760,cs),
(45,760,ls),
(42,760,o),
(40,758,o),
(40,755,cs),
(40,5,ls),
(40,2,o),
(42,0,o),
(45,0,cs),
(159,0,ls),
(162,0,o),
(164,2,o),
(164,5,cs),
(164,38,l),
(204,6,o),
(261,-16,o),
(340,-16,cs),
(440,-16,o),
(580,36,o),
(580,250,cs),
(580,466,o),
(440,516,o),
(340,516,cs),
(189,516,o),
(172,418,o),
(172,433,c),
(172,755,ls)
);
},
{
closed = 1;
nodes = (
(397,488,o),
(447,415,o),
(447,263,cs),
(447,227,ls),
(447,105,o),
(397,12,o),
(310,12,cs),
(221,12,o),
(177,63,o),
(172,125,c),
(172,362,ls),
(172,428,o),
(234,488,o),
(300,488,cs)
);
},
{
closed = 1;
nodes = (
(310,14,l),
(310,12,l)
);
}
);
width = 605;
}
);
unicode = 98;
},
{
glyphname = c;
lastChange = "2025-06-30 01:30:45 +0000";
layers = (
{
layerId = m002;
shapes = (
{
closed = 1;
nodes = (
(474,155,ls),
(471,155,o),
(469,153,o),
(469,150,cs),
(467,58,o),
(423,12,o),
(330,12,cs),
(223,12,o),
(173,60,o),
(173,227,cs),
(173,263,ls),
(173,435,o),
(223,488,o),
(330,488,cs),
(426,488,o),
(471,437,o),
(472,333,cs),
(472,330,o),
(474,328,o),
(477,328,cs),
(596,328,ls),
(599,328,o),
(601,330,o),
(601,333,cs),
(597,460,o),
(441,516,o),
(330,516,cs),
(200,516,o),
(40,456,o),
(40,250,cs),
(40,46,o),
(200,-16,o),
(330,-16,cs),
(435,-16,o),
(592,36,o),
(597,150,cs),
(597,153,o),
(595,155,o),
(592,155,cs)
);
}
);
width = 641;
}
);
unicode = 99;
},
{
glyphname = d;
lastChange = "2025-06-30 01:30:45 +0000";
layers = (
{
layerId = m002;
shapes = (
{
closed = 1;
nodes = (
(448,433,l),
(448,418,o),
(431,516,o),
(280,516,cs),
(180,516,o),
(40,466,o),
(40,250,cs),
(40,36,o),
(180,-16,o),
(280,-16,cs),
(359,-16,o),
(416,6,o),
(456,38,c),
(456,5,ls),
(456,2,o),
(458,0,o),
(461,0,cs),
(575,0,ls),
(578,0,o),
(580,2,o),
(580,5,cs),
(580,755,ls),
(580,758,o),
(578,760,o),
(575,760,cs),
(453,760,ls),
(450,760,o),
(448,758,o),
(448,755,cs)
);
},
{
closed = 1;
nodes = (
(386,488,o),
(448,428,o),
(448,362,cs),
(448,125,l),
(443,63,o),
(399,12,o),
(310,12,cs),
(223,12,o),
(173,105,o),
(173,227,cs),
(173,263,ls),
(173,415,o),
(223,488,o),
(320,488,cs)
);
},
{
closed = 1;
nodes = (
(310,14,l),
(310,12,l)
);
}
);
width = 645;
}
);
unicode = 100;
},
{
glyphname = e;
lastChange = "2025-06-30 01:30:45 +0000";
layers = (
{
layerId = m002;
shapes = (
{
closed = 1;
nodes = (
(479,248,ls),
(482,248,o),
(484,250,o),
(484,253,cs),
(484,275,ls),
(484,278,o),
(482,280,o),
(479,280,cs),
(155,280,ls),
(152,280,o),
(150,278,o),
(150,275,cs),
(150,253,ls),
(150,250,o),
(152,248,o),
(155,248,cs)
);
},
{
closed = 1;
nodes = (
(472,176,ls),
(469,176,o),
(467,174,o),
(467,171,cs),
(466,68,o),
(430,12,o),
(330,12,cs),
(223,12,o),
(173,70,o),
(173,237,cs),
(173,273,ls),
(173,430,o),
(223,488,o),
(320,488,cs),
(427,488,o),
(466,431,o),
(467,253,cs),
(467,250,o),
(469,248,o),
(472,248,cs),
(595,248,ls),
(598,248,o),
(600,250,o),
(600,253,cs),
(598,459,o),
(447,516,o),
(320,516,cs),
(200,516,o),
(40,456,o),
(40,250,cs),
(40,46,o),
(200,-16,o),
(330,-16,cs),
(442,-16,o),
(596,23,o),
(600,171,cs),
(600,174,o),
(598,176,o),
(595,176,cs)
);
}
);
width = 641;
}
);
unicode = 101;
},
{
glyphname = f;
lastChange = "2025-06-30 01:30:45 +0000";
layers = (
{
layerId = m002;
shapes = (
{
closed = 1;
nodes = (
(398,748,o),
(407,713,o),
(407,631,cs),
(407,627,o),
(409,625,o),
(412,625,cs),
(530,625,ls),
(533,625,o),
(535,627,o),
(535,630,cs),
(531,732,o),
(424,776,o),
(343,776,cs),
(271,776,o),
(118,758,o),
(118,501,cs),
(118,5,ls),
(118,2,o),
(120,0,o),
(123,0,cs),
(245,0,ls),
(248,0,o),
(250,2,o),
(250,5,cs),
(250,625,ls),
(250,711,o),
(270,748,o),
(329,748,cs)
);
},
{
closed = 1;
nodes = (
(40,475,ls),
(40,472,o),
(42,470,o),
(45,470,cs),
(353,470,ls),
(356,470,o),
(358,472,o),
(358,475,cs),
(358,495,ls),
(358,498,o),
(356,500,o),
(353,500,cs),
(45,500,ls),
(42,500,o),
(40,498,o),
(40,495,cs)
);
}
);
width = 398;
}
);
unicode = 102;
},
{
glyphname = g;
lastChange = "2025-06-30 01:30:45 +0000";
layers = (
{
layerId = m002;
shapes = (
{
closed = 1;
nodes = (
(370,244,o),
(370,157,o),
(263,157,cs),
(156,157,o),
(156,244,o),
(156,316,cs),
(156,336,ls),
(156,398,o),
(156,485,o),
(263,485,cs),
(370,485,o),
(370,398,o),
(370,336,cs),
(370,316,ls)
);
},
{
closed = 1;
nodes = (
(23,189,o),
(143,127,o),
(263,127,cs),
(363,127,o),
(503,189,o),
(503,324,cs),
(503,328,ls),
(503,463,o),
(363,515,o),
(263,515,cs),
(143,515,o),
(23,463,o),
(23,328,cs),
(23,324,ls)
);
},
{
closed = 1;
nodes = (
(59,121,o),
(61,48,o),
(155,10,c),
(73,-19,o),
(10,-48,o),
(10,-100,cs),
(10,-211,o),
(165,-234,o),
(306,-234,cs),
(384,-234,o),
(566,-217,o),
(566,-101,cs),
(566,-1,o),
(498,43,o),
(367,57,cs),
(316,62,o),
(284,66,o),
(233,66,cs),
(144,66,o),
(118,111,o),
(161,175,cs),
(163,177,o),
(162,181,o),
(159,182,cs),
(134,195,ls),
(131,197,o),
(129,196,o),
(127,194,cs)
);
},
{
closed = 1;
nodes = (
(199,-199,o),
(148,-187,o),
(148,-109,cs),
(148,-64,o),
(183,-19,o),
(219,-2,c),
(255,-2,o),
(311,0,o),
(367,-13,cs),
(432,-28,o),
(479,-55,o),
(479,-105,cs),
(479,-180,o),
(385,-199,o),
(309,-199,cs)
);
},
{
closed = 1;
nodes = (
(388,463,ls),
(390,462,o),
(391,461,o),
(394,460,cs),
(542,432,ls),
(545,431,o),
(547,434,o),
(547,437,cs),
(547,495,ls),
(547,498,o),
(545,500,o),
(542,500,cs),
(352,500,ls),
(347,500,o),
(347,498,o),
(351,494,cs)
);
}
);
width = 616;
}
);
unicode = 103;
},
{
glyphname = h;
lastChange = "2025-06-30 01:30:45 +0000";
layers = (
{
layerId = m002;
shapes = (
{
closed = 1;
nodes = (
(192,0,ls),
(195,0,o),
(197,2,o),
(197,5,cs),
(197,755,ls),
(197,758,o),
(195,760,o),
(192,760,cs),
(70,760,ls),
(67,760,o),
(65,758,o),
(65,755,cs),
(65,5,ls),
(65,2,o),
(67,0,o),
(70,0,cs)
);
},
{
closed = 1;
nodes = (
(570,0,ls),
(573,0,o),
(575,2,o),
(575,5,cs),
(575,352,ls),
(575,469,o),
(472,516,o),
(355,516,cs),
(254,516,o),
(197,446,o),
(197,430,cs),
(197,362,l),
(197,428,o),
(262,486,o),
(325,486,cs),
(389,486,o),
(443,458,o),
(443,352,cs),
(443,5,ls),
(443,2,o),
(445,0,o),
(448,0,cs)
);
}
);
width = 640;
}
);
unicode = 104;
},
{
glyphname = i;
lastChange = "2025-06-30 01:30:45 +0000";
layers = (
{
layerId = m002;
shapes = (
{
closed = 1;
nodes = (
(199,0,ls),
(202,0,o),
(204,2,o),
(204,5,cs),
(204,495,ls),
(204,498,o),
(202,500,o),
(199,500,cs),
(75,500,ls),
(72,500,o),
(70,498,o),
(70,495,cs),
(70,5,ls),
(70,2,o),
(72,0,o),
(75,0,cs)
);
},
{
closed = 1;
nodes = (
(187,568,o),
(210,585,o),
(210,615,cs),
(210,645,o),
(187,661,o),
(138,661,cs),
(88,661,o),
(65,645,o),
(65,615,cs),
(65,585,o),
(88,568,o),
(138,568,cs)
);
}
);
width = 223;
}
);
unicode = 105;
},
{
glyphname = j;
lastChange = "2025-06-30 01:30:45 +0000";
layers = (
{
layerId = m002;
shapes = (
{
closed = 1;
nodes = (
(70,20,ls),
(70,-112,o),
(79,-200,o),
(2,-200,cs),
(-57,-200,o),
(-56,-155,o),
(-56,-82,cs),
(-56,-79,o),
(-58,-77,o),
(-61,-77,cs),
(-159,-77,ls),
(-162,-77,o),
(-164,-79,o),
(-164,-82,cs),
(-162,-184,o),
(-91,-228,o),
(2,-228,cs),
(92,-228,o),
(202,-157,o),
(202,19,cs),
(202,495,ls),
(202,498,o),
(200,500,o),
(197,500,cs),
(75,500,ls),
(72,500,o),
(70,498,o),
(70,495,cs)
);
},
{
closed = 1;
nodes = (
(187,568,o),
(210,585,o),
(210,615,cs),
(210,645,o),
(187,661,o),
(138,661,cs),
(88,661,o),
(65,645,o),
(65,615,cs),
(65,585,o),
(88,568,o),
(138,568,cs)
);
}
);
width = 223;
}
);
unicode = 106;
},
{
glyphname = k;
lastChange = "2025-06-30 01:30:45 +0000";
layers = (
{
background = {
shapes = (
{
closed = 0;
nodes = (
(557,0,l),
(336,338,l)
);
}
);
};
layerId = m002;
shapes = (
{
closed = 1;
nodes = (
(162,202,ls),
(164,202,o),
(167,203,o),
(169,205,cs),
(467,495,ls),
(470,498,o),
(468,501,o),
(464,501,cs),
(434,501,ls),
(432,501,o),
(429,500,o),
(427,498,cs),
(129,208,ls),
(126,205,o),
(128,202,o),
(132,202,cs)
);
},
{
closed = 1;
nodes = (
(70,760,ls),
(67,760,o),
(65,758,o),
(65,755,cs),
(65,5,ls),
(65,2,o),
(67,0,o),
(70,0,cs),
(192,0,ls),
(195,0,o),
(197,2,o),
(197,5,cs),
(197,755,ls),
(197,758,o),
(195,760,o),
(192,760,cs)
);
},
{
closed = 1;
nodes = (
(237,291,ls),
(235,289,o),
(236,286,o),
(237,284,cs),
(423,3,ls),
(424,1,o),
(427,0,o),
(429,0,cs),
(550,0,ls),
(554,0,o),
(555,2,o),
(553,6,cs),
(319,364,ls),
(317,367,o),
(315,368,o),
(312,365,cs)
);
}
);
width = 567;
}
);
unicode = 107;
},
{
glyphname = l;
lastChange = "2025-06-30 01:30:45 +0000";
layers = (
{
layerId = m002;
shapes = (
{
closed = 1;
nodes = (
(192,0,ls),
(195,0,o),
(197,2,o),
(197,5,cs),
(197,755,ls),
(197,758,o),
(195,760,o),
(192,760,cs),
(70,760,ls),
(67,760,o),
(65,758,o),
(65,755,cs),
(65,5,ls),
(65,2,o),
(67,0,o),
(70,0,cs)
);
}
);
width = 262;
}
);
unicode = 108;
},
{
glyphname = m;
lastChange = "2025-06-30 01:30:45 +0000";
layers = (
{
layerId = m002;
shapes = (
{
closed = 1;
nodes = (
(192,0,ls),
(195,0,o),
(197,2,o),
(197,5,cs),
(197,495,ls),
(197,498,o),
(195,500,o),
(192,500,cs),
(70,500,ls),
(67,500,o),
(65,498,o),
(65,495,cs),
(65,5,ls),
(65,2,o),
(67,0,o),
(70,0,cs)
);
},
{
closed = 1;
nodes = (
(570,0,ls),
(573,0,o),
(575,2,o),
(575,5,cs),
(575,352,ls),
(575,469,o),
(472,516,o),
(355,516,cs),
(254,516,o),
(197,446,o),
(197,430,cs),
(197,362,l),
(197,428,o),
(262,486,o),
(325,486,cs),
(389,486,o),
(443,458,o),
(443,352,cs),
(443,5,ls),
(443,2,o),
(445,0,o),
(448,0,cs)
);
},
{
closed = 1;
nodes = (
(948,0,ls),
(951,0,o),
(953,2,o),
(953,5,cs),
(953,352,ls),
(953,469,o),
(850,516,o),
(733,516,cs),
(632,516,o),
(560,441,o),
(560,407,c),
(575,362,l),
(575,428,o),
(640,486,o),
(703,486,cs),
(767,486,o),
(821,458,o),
(821,352,cs),
(821,5,ls),
(821,2,o),
(823,0,o),
(826,0,cs)
);
}
);
width = 1018;
}
);
unicode = 109;
},
{
glyphname = n;
lastChange = "2025-06-30 01:30:45 +0000";
layers = (
{
layerId = m002;
shapes = (
{
closed = 1;
nodes = (
(192,0,ls),
(195,0,o),
(197,2,o),
(197,5,cs),
(197,495,ls),
(197,498,o),
(195,500,o),
(192,500,cs),
(70,500,ls),
(67,500,o),
(65,498,o),
(65,495,cs),
(65,5,ls),
(65,2,o),
(67,0,o),
(70,0,cs)
);
},
{
closed = 1;
nodes = (
(550,0,ls),
(553,0,o),
(555,2,o),
(555,5,cs),
(555,352,ls),
(555,469,o),
(452,516,o),
(335,516,cs),
(259,516,o),
(197,446,o),
(197,430,cs),
(197,362,l),
(197,428,o),
(259,486,o),
(325,486,cs),
(382,486,o),
(423,458,o),
(423,352,cs),
(423,5,ls),
(423,2,o),
(425,0,o),
(428,0,cs)
);
}
);
width = 620;
}
);
unicode = 110;
},
{
glyphname = o;
lastChange = "2025-06-30 01:30:45 +0000";
layers = (
{
layerId = m002;
shapes = (
{
closed = 1;
nodes = (
(213,12,o),
(173,105,o),
(173,227,cs),
(173,263,ls),
(173,395,o),
(213,488,o),
(320,488,cs),
(427,488,o),
(467,395,o),
(467,263,cs),
(467,227,ls),
(467,105,o),
(427,12,o),
(320,12,cs)
);
},
{
closed = 1;
nodes = (
(40,66,o),
(200,-16,o),
(320,-16,cs),
(440,-16,o),
(600,66,o),
(600,250,cs),
(600,436,o),
(440,516,o),
(320,516,cs),
(200,516,o),
(40,436,o),
(40,250,cs)
);
}
);
width = 640;
}
);
unicode = 111;
},
{
glyphname = p;
lastChange = "2025-06-30 01:30:45 +0000";
layers = (
{
layerId = m002;
shapes = (
{
closed = 1;
nodes = (
(50,500,ls),
(47,500,o),
(45,498,o),
(45,495,cs),
(45,-207,ls),
(45,-210,o),
(47,-212,o),
(50,-212,cs),
(172,-212,ls),
(175,-212,o),
(177,-210,o),
(177,-207,cs),
(177,30,l),
(217,-2,o),
(286,-16,o),
(315,-16,cs),
(415,-16,o),
(565,66,o),
(565,250,cs),
(565,446,o),
(415,516,o),
(315,516,cs),
(224,516,o),
(181,448,o),
(177,430,c),
(177,495,ls),
(177,498,o),
(175,500,o),
(172,500,cs)
);
},
{
closed = 1;
nodes = (
(402,488,o),
(452,405,o),
(452,263,cs),
(452,227,ls),
(452,95,o),
(402,12,o),
(315,12,cs),
(206,12,o),
(177,63,o),
(177,125,c),
(177,362,ls),
(177,428,o),
(239,488,o),
(315,488,cs)
);
}
);
width = 590;
}
);
unicode = 112;
},
{
glyphname = q;
lastChange = "2025-06-30 01:30:45 +0000";
layers = (
{
layerId = m002;
shapes = (
{
closed = 1;
nodes = (
(448,430,ls),
(448,415,o),
(416,516,o),
(300,516,cs),
(200,516,o),
(40,476,o),
(40,250,cs),
(40,26,o),
(210,-16,o),
(310,-16,cs),
(359,-16,o),
(408,-2,o),
(448,30,c),
(448,-207,ls),
(448,-210,o),
(450,-212,o),
(453,-212,cs),
(575,-212,ls),
(578,-212,o),
(580,-210,o),
(580,-207,cs),
(580,495,ls),
(580,498,o),
(578,500,o),
(575,500,cs),
(453,500,ls),
(450,500,o),
(448,498,o),
(448,495,cs)
);
},
{
closed = 1;
nodes = (
(386,488,o),
(448,408,o),
(448,342,cs),
(448,125,l),
(443,63,o),
(419,12,o),
(310,12,cs),
(223,12,o),
(173,55,o),
(173,177,cs),
(173,313,ls),
(173,445,o),
(223,488,o),
(310,488,cs)
);
}
);
width = 645;
}
);
unicode = 113;
},
{
glyphname = r;
lastChange = "2025-06-30 01:30:45 +0000";
layers = (
{
layerId = m002;
shapes = (
{
closed = 1;
nodes = (
(192,0,ls),
(195,0,o),
(197,2,o),
(197,5,cs),
(197,495,ls),
(197,498,o),
(195,500,o),
(192,500,cs),
(70,500,ls),
(67,500,o),
(65,498,o),
(65,495,cs),
(65,5,ls),
(65,2,o),
(67,0,o),
(70,0,cs)
);
},
{
closed = 1;
nodes = (
(197,428,o),
(244,486,o),
(274,486,cs),
(315,486,o),
(312,459,o),
(313,370,cs),
(313,367,o),
(315,365,o),
(318,365,cs),
(430,365,ls),
(433,365,o),
(435,367,o),
(435,370,cs),
(434,471,o),
(416,516,o),
(291,516,cs),
(225,516,o),
(197,446,o),
(197,430,c),
(197,362,l)
);
}
);
width = 470;
}
);
unicode = 114;
},
{
glyphname = s;
lastChange = "2025-06-30 01:30:45 +0000";
layers = (
{
layerId = m002;
shapes = (
{
closed = 1;
nodes = (
(433,392,ls),
(436,392,o),
(438,394,o),
(438,397,cs),
(434,499,o),
(299,516,o),
(221,516,cs),
(126,516,o),
(32,464,o),
(32,364,cs),
(32,272,o),
(95,232,o),
(156,214,cs),
(226,193,ls),
(266,181,o),
(388,157,o),
(388,95,cs),
(388,42,o),
(321,16,o),
(272,16,cs),
(169,16,o),
(135,65,o),
(133,127,cs),
(133,130,o),
(131,132,o),
(128,132,cs),
(20,132,ls),
(17,132,o),
(15,130,o),
(15,127,cs),
(19,13,o),
(165,-16,o),
(266,-16,cs),
(384,-16,o),
(453,49,o),
(453,143,cs),
(453,251,o),
(330,287,o),
(286,300,cs),
(216,321,ls),
(200,326,o),
(90,353,o),
(90,410,cs),
(90,457,o),
(142,485,o),
(207,485,cs),
(274,485,o),
(318,449,o),
(321,397,cs),
(321,394,o),
(323,392,o),
(326,392,cs)
);
}
);
width = 478;
}
);
unicode = 115;
},
{
glyphname = t;
lastChange = "2025-06-30 01:30:45 +0000";
layers = (
{
layerId = m002;
shapes = (
{
closed = 1;
nodes = (
(333,0,ls),
(336,0,o),
(338,2,o),
(338,5,cs),
(338,23,ls),
(338,26,o),
(336,28,o),
(333,28,cs),
(293,28,ls),
(221,30,o),
(220,85,o),
(220,214,cs),
(220,470,l),
(333,470,ls),
(336,470,o),
(338,472,o),
(338,475,cs),
(338,495,ls),
(338,498,o),
(336,500,o),
(333,500,cs),
(220,500,l),
(220,655,ls),
(220,658,o),
(218,660,o),
(215,660,cs),
(93,660,ls),
(90,660,o),
(88,658,o),
(88,655,cs),
(88,500,l),
(15,500,ls),
(12,500,o),
(10,498,o),
(10,495,cs),
(10,475,ls),
(10,472,o),
(12,470,o),
(15,470,cs),
(88,470,l),
(88,150,ls),
(88,12,o),
(205,1,o),
(293,0,cs)
);
}
);
width = 348;
}
);
unicode = 116;
},
{
glyphname = u;
lastChange = "2025-06-30 01:30:45 +0000";
layers = (
{
layerId = m002;
shapes = (
{
closed = 1;
nodes = (
(570,0,ls),
(573,0,o),
(575,2,o),
(575,5,cs),
(575,495,ls),
(575,498,o),
(573,500,o),
(570,500,cs),
(448,500,ls),
(445,500,o),
(443,498,o),
(443,495,cs),
(443,138,l),
(443,72,o),
(378,14,o),
(315,14,cs),
(251,14,o),
(197,42,o),
(197,148,cs),
(197,495,ls),
(197,498,o),
(195,500,o),
(192,500,cs),
(70,500,ls),
(67,500,o),
(65,498,o),
(65,495,cs),
(65,148,ls),
(65,31,o),
(168,-16,o),
(285,-16,cs),
(386,-16,o),
(443,54,o),
(443,70,cs),
(443,5,ls),
(443,2,o),
(445,0,o),
(448,0,cs)
);
}
);
width = 640;
}
);
unicode = 117;
},
{
glyphname = v;
lastChange = "2025-06-30 01:30:45 +0000";
layers = (
{
layerId = m002;
shapes = (
{
closed = 1;
nodes = (
(334,0,ls),
(337,0,o),
(339,2,o),
(338,6,cs),
(163,496,ls),
(162,498,o),
(161,500,o),
(158,500,cs),
(31,500,ls),
(28,500,o),
(26,498,o),
(27,494,cs),
(202,4,ls),
(203,2,o),
(204,0,o),
(207,0,cs)
);
},
{
closed = 1;
nodes = (
(310,6,ls),
(309,2,o),
(311,0,o),
(314,0,cs),
(336,0,ls),
(339,0,o),
(340,2,o),
(341,4,cs),
(518,494,ls),
(519,498,o),
(517,500,o),
(514,500,cs),
(488,500,ls),
(485,500,o),
(484,498,o),
(483,496,cs)
);
}
);
width = 545;
}
);
unicode = 118;
},
{
glyphname = w;
lastChange = "2025-06-30 01:30:45 +0000";
layers = (
{
layerId = m002;
shapes = (
{
closed = 1;
nodes = (
(314,0,ls),
(317,0,o),
(319,2,o),
(318,6,cs),
(163,496,ls),
(162,498,o),
(161,500,o),
(158,500,cs),
(31,500,ls),
(28,500,o),
(26,498,o),
(27,494,cs),
(182,4,ls),
(183,2,o),
(184,0,o),
(187,0,cs)
);
},
{
closed = 1;
nodes = (
(290,6,ls),
(289,2,o),
(291,0,o),
(294,0,cs),
(316,0,ls),
(319,0,o),
(320,2,o),
(321,4,cs),
(478,494,ls),
(479,498,o),
(477,500,o),
(474,500,cs),
(448,500,ls),
(445,500,o),
(444,498,o),
(443,496,cs)
);
},
{
closed = 1;
nodes = (
(682,0,ls),
(685,0,o),
(687,2,o),
(686,6,cs),
(531,496,ls),
(530,498,o),
(529,500,o),
(526,500,cs),
(448,500,ls),
(445,500,o),
(444,498,o),
(443,496,cs),
(421,425,ls),
(420,422,o),
(420,422,o),
(421,419,cs),
(550,4,ls),
(551,2,o),
(552,0,o),
(555,0,cs)
);
},
{
closed = 1;
nodes = (
(658,6,ls),
(657,2,o),
(659,0,o),
(662,0,cs),
(684,0,ls),
(687,0,o),
(688,2,o),
(689,4,cs),
(846,494,ls),
(847,498,o),
(845,500,o),
(842,500,cs),
(816,500,ls),
(813,500,o),
(812,498,o),
(811,496,cs)
);
}
);
width = 873;
}
);
unicode = 119;
},
{
glyphname = x;
lastChange = "2025-06-30 01:30:45 +0000";
layers = (
{
layerId = m002;
shapes = (
{
closed = 1;
nodes = (
(575,0,ls),
(579,0,o),
(580,3,o),
(578,6,cs),
(186,497,ls),
(185,499,o),
(182,500,o),
(180,500,cs),
(33,500,ls),
(29,500,o),
(28,497,o),
(30,494,cs),
(422,3,ls),
(423,1,o),
(426,0,o),
(428,0,cs)
);
},
{
closed = 1;
nodes = (
(335,273,ls),
(337,273,o),
(340,274,o),
(341,276,cs),
(515,494,ls),
(517,497,o),
(516,500,o),
(512,500,cs),
(485,500,ls),
(483,500,o),
(480,499,o),
(479,497,cs),
(305,279,ls),
(303,276,o),
(304,273,o),
(308,273,cs)
);
},
{
closed = 1;
nodes = (
(287,273,ls),
(285,273,o),
(282,272,o),
(281,270,cs),
(70,6,ls),
(68,3,o),
(69,0,o),
(73,0,cs),
(100,0,ls),
(102,0,o),
(105,1,o),
(106,3,cs),
(317,267,ls),
(319,270,o),
(318,273,o),
(314,273,cs)
);
}
);
width = 608;
}
);
unicode = 120;
},
{
glyphname = y;
lastChange = "2025-06-30 01:30:45 +0000";
layers = (
{
layerId = m002;
shapes = (
{
closed = 1;
nodes = (
(294,-3,ls),
(295,-1,o),
(296,1,o),
(295,4,cs),
(113,496,ls),
(112,498,o),
(110,500,o),
(108,500,cs),
(-19,500,ls),
(-22,500,o),
(-24,498,o),
(-23,494,cs),
(206,-132,ls),
(207,-136,o),
(211,-135,o),
(213,-132,cs)
);
},
{
closed = 1;
nodes = (
(76,-207,ls),
(76,-210,o),
(78,-212,o),
(81,-212,cs),
(196,-211,o),
(234,-165,o),
(297,0,cs),
(487,494,ls),
(488,498,o),
(486,500,o),
(483,500,cs),
(454,500,ls),
(452,500,o),
(450,498,o),
(449,496,cs),
(261,0,ls),
(216,-119,o),
(206,-179,o),
(81,-180,cs),
(78,-180,o),
(76,-182,o),
(76,-185,cs)
);
}
);
width = 511;
}
);
unicode = 121;
},
{
glyphname = z;
lastChange = "2025-06-30 01:30:45 +0000";
layers = (
{
layerId = m002;
shapes = (
{
closed = 1;
nodes = (
(520,27,ls),
(520,30,o),
(518,32,o),
(515,32,cs),
(95,32,ls),
(92,32,o),
(90,30,o),
(90,27,cs),
(90,5,ls),
(90,2,o),
(92,0,o),
(95,0,cs),
(515,0,ls),
(518,0,o),
(520,2,o),
(520,5,cs)
);
},
{
closed = 1;
nodes = (
(515,495,ls),
(515,498,o),
(513,500,o),
(510,500,cs),
(96,500,ls),
(93,500,o),
(91,498,o),
(91,495,cs),
(91,475,ls),
(91,472,o),
(93,470,o),
(96,470,cs),
(510,470,ls),
(513,470,o),
(515,472,o),
(515,475,cs)
);
},
{
closed = 1;
nodes = (
(372,470,ls),
(370,470,o),
(367,469,o),
(366,467,cs),
(95,38,ls),
(93,34,o),
(94,32,o),
(98,32,cs),
(234,32,ls),
(236,32,o),
(239,33,o),
(240,35,cs),
(511,464,ls),
(513,468,o),
(512,470,o),
(508,470,cs)
);
}
);
width = 580;
}
);
unicode = 122;
},
{
glyphname = period;
lastChange = "2025-06-30 01:30:45 +0000";
layers = (
{
layerId = m002;
shapes = (
{
closed = 1;
nodes = (
(111,-16,o),
(132,4,o),
(132,40,cs),
(132,76,o),
(111,96,o),
(76,96,cs),
(40,96,o),
(20,76,o),
(20,40,cs),
(20,4,o),
(40,-16,o),
(76,-16,cs)
);
}
);
width = 152;
}
);
unicode = 46;
},
